# xmcd CD database file
#
# Track frame offsets:
#	183
#	13918
#	25993
#	38153
#	51225
#	63328
#	77243
#	89388
#	101423
#	115220
#	126540
#	138635
#	149223
#	160560
#	175485
#	200660
#
# Disc length: 2974 seconds
#
# Revision: 0
# Processed by: cddbd v1.5.1PL0 Copyright (c) Steve Scherf et al.
# Submitted via: CDex 1.51
#
DISCID=ef0b9c10
DTITLE=Menphis Slim - Living the Blues
DYEAR=1989
DGENRE=Blues
TTITLE0=Slim's blues
TTITLE1=Mother earth
TTITLE2=Trouble trouble
TTITLE3=Tiajuana
TTITLE4=For a day (instrumental)
TTITLE5=I guess i'm a fool
TTITLE6=Rockin' the pad
TTITLE7=Really got the blues
TTITLE8=My baby
TTITLE9=Marack
TTITLE10=Reverend bounce (instrumental)
TTITLE11=Having fun
TTITLE12=Feeling low
TTITLE13=I'm crying
TTITLE14=Fattening frogs for snakes
TTITLE15=Boogie jam
EXTD=YEAR: 1989
EXTT0=
EXTT1=
EXTT2=
EXTT3=
EXTT4=
EXTT5=
EXTT6=
EXTT7=
EXTT8=
EXTT9=
EXTT10=
EXTT11=
EXTT12=
EXTT13=
EXTT14=
EXTT15=
PLAYORDER=
